<?xml version="1.0" standalone="no"?>
<!DOCTYPE svg PUBLIC "-//W3C//DTD SVG 20010904//EN"
 "http://www.w3.org/TR/2001/REC-SVG-20010904/DTD/svg10.dtd">
<svg version="1.0" xmlns="http://www.w3.org/2000/svg"
 width="1024.000000pt" height="1024.000000pt" viewBox="0 0 1024.000000 1024.000000"
 preserveAspectRatio="xMidYMid meet">
<metadata>
Created by potrace 1.16, written by Peter Selinger 2001-2019
</metadata>
<g transform="translate(0.000000,1024.000000) scale(0.100000,-0.100000)"
fill="#000000" stroke="none">
<path d="M5111 10227 c-1 -5 -57 -189 -125 -410 -69 -221 -332 -1075 -586
-1897 -253 -822 -468 -1516 -476 -1542 l-16 -48 -1951 -2 -1951 -3 1569 -1199
c864 -660 1574 -1203 1579 -1207 4 -4 -42 -168 -102 -366 -61 -197 -332 -1073
-602 -1947 -269 -874 -489 -1591 -487 -1592 2 -2 678 512 1503 1142 824 631
1533 1173 1575 1204 l75 58 1574 -1203 c866 -662 1576 -1202 1578 -1200 2 2
-75 259 -171 572 -744 2405 -1027 3326 -1025 3328 45 31 3119 2383 3133 2396
19 19 -18 19 -1931 19 l-1951 0 -181 588 c-100 323 -368 1192 -597 1932 -385
1248 -432 1399 -434 1377z m358 -1677 c116 -377 329 -1067 474 -1535 l262
-850 1763 -5 1763 -5 -803 -615 -803 -615 -1502 -3 -1503 -2 1 2377 0 2378 68
-220 c38 -121 163 -528 280 -905z m-1404 -2988 l100 -327 335 -5 335 -5 -267
-205 c-148 -112 -268 -209 -268 -215 0 -5 45 -154 100 -330 54 -175 97 -321
95 -323 -2 -2 -119 85 -260 193 -141 108 -262 198 -269 201 -7 3 -131 -86
-275 -196 -145 -111 -265 -200 -267 -198 -2 3 41 150 96 328 55 178 99 327 98
331 -3 8 -37 34 -338 265 l-195 149 334 5 335 5 100 327 c56 181 103 328 106
328 3 0 50 -148 105 -328z"/>
</g>
</svg>
